<svg preserveAspectRatio="none" width="100%" height="100%" overflow="visible" style="display: block;" viewBox="0 0 20 16" fill="none" xmlns="http://www.w3.org/2000/svg">
<g id="Icon">
<path d="M7.5 5C7.5 3.89543 8.39543 3 9.5 3H10.5C11.6046 3 12.5 3.89543 12.5 5V14C12.5 15.1046 11.6046 16 10.5 16H9.5C8.39543 16 7.5 15.1046 7.5 14V5Z" fill="var(--fill-0, #A3A3A3)"/>
<path d="M15 2C15 0.895431 15.8954 0 17 0H18C19.1046 0 20 0.895431 20 2V14C20 15.1046 19.1046 16 18 16H17C15.8954 16 15 15.1046 15 14V2Z" fill="var(--fill-0, #A3A3A3)"/>
<path d="M0 8C0 6.89543 0.895431 6 2 6H3C4.10457 6 5 6.89543 5 8V14C5 15.1046 4.10457 16 3 16H2C0.89543 16 0 15.1046 0 14V8Z" fill="var(--fill-0, #A3A3A3)"/>
</g>
</svg>
