<svg preserveAspectRatio="none" width="100%" height="100%" overflow="visible" style="display: block;" viewBox="0 0 116.001 36" fill="none" xmlns="http://www.w3.org/2000/svg">
<g id="Full logo">
<g id="Logo" clip-path="url(#clip0_19901_213521)">
<path id="Vector" d="M11.4392 12.5611C8.4468 12.5611 6.00007 15.0078 6.00007 18.0002C6.00007 20.9926 8.4468 23.4393 11.4392 23.4393H12.561V12.5611H11.4392Z" fill="var(--fill-0, #69BAE8)"/>
<path id="Vector_2" d="M24.5612 12.5611H23.4394V23.4393H24.5612C27.5536 23.4393 30.0003 20.9926 30.0003 18.0002C30.0003 15.0078 27.5536 12.5611 24.5612 12.5611Z" fill="var(--fill-0, #485DAA)"/>
<path id="Vector_3" d="M23.4396 11.4391C23.4396 8.44672 20.9929 6 18.0005 6C15.0081 6 12.5613 8.44672 12.5613 11.4391V12.561H23.4396V11.4391Z" fill="var(--fill-0, #69BAE8)"/>
<path id="Vector_4" d="M12.7285 25.8681C13.3199 28.231 15.4595 30.0001 18.0001 30.0001C20.9926 30.0001 23.4393 27.5534 23.4393 24.5609V23.4391H15.1575L12.7285 25.8681Z" fill="var(--fill-0, #485DAA)"/>
<path id="Vector_5" d="M12.5613 12.5611V23.4393V24.5612C12.5613 25.013 12.6223 25.4495 12.7289 25.8683L15.1578 23.4393H23.4396V12.5611H12.5613Z" fill="var(--fill-0, #003A5D)"/>
</g>
<path id="Union" fill-rule="evenodd" clip-rule="evenodd" d="M90.7685 9.21368C90.7685 8.32616 91.495 7.62646 92.3825 7.62646C93.2969 7.62646 94.0234 8.32616 94.0234 9.21368C94.0234 10.128 93.2969 10.8009 92.3825 10.8009C91.495 10.8009 90.7685 10.128 90.7685 9.21368ZM91.0636 12.8731H93.7014V24.1756H91.0636V12.8731ZM88.2916 7.89453H85.6538V24.1754H88.2916V7.89453ZM52.4193 12.873H50.6979V24.1734H53.3357V17.42C53.4162 16.2352 54.2232 14.8627 56.0272 14.8627C57.7506 14.8627 58.6918 16.0742 58.6918 17.6614V24.1734H61.3234V17.42C61.4039 16.1816 62.2398 14.8627 64.0148 14.8627C65.7651 14.8627 66.6526 16.2084 66.6526 17.9298V24.1734H69.2904V17.6883C69.2904 14.648 67.5938 12.6026 64.6609 12.6026C62.6443 12.6026 61.5401 13.4096 60.7867 14.648H60.6526C59.8724 13.3559 58.4998 12.6026 56.6422 12.6026C54.7867 12.6026 53.7361 13.2486 52.9023 14.487H52.7413L52.4193 12.873ZM43.9197 24.4997C46.7722 24.4997 48.0642 23.154 48.0642 23.154L47.1231 21.3542C47.1231 21.3542 45.9941 22.349 44.0828 22.349C42.091 22.349 40.7453 21.218 40.5843 18.9311H48.6029C48.6029 18.9311 48.6298 18.4729 48.6298 18.2314C48.6298 14.9475 46.7742 12.607 43.4904 12.607C40.1798 12.607 38.0002 15.1354 38.0002 18.5534C38.0002 21.9961 40.2334 24.4997 43.9197 24.4997ZM45.992 17.1787H40.6916C40.9868 15.4842 41.9837 14.6503 43.4347 14.6483C44.9166 14.6483 45.8042 15.5379 45.992 17.1787ZM74.6279 22.8565V28.3736H71.9901V12.873H73.7383L74.1161 14.487H74.2771C74.2771 14.487 75.2987 12.6026 78.2337 12.6026C81.1935 12.6026 83.4804 14.9163 83.4804 18.5221C83.4804 22.0474 81.2204 24.4417 78.3142 24.4417C75.5155 24.4417 74.7353 22.8545 74.7353 22.8545H74.6279V22.8565ZM77.6703 22.2642C79.501 22.2642 80.8179 20.7306 80.8179 18.5242C80.8179 16.3446 79.499 14.7842 77.6703 14.7842C75.8952 14.7842 74.4958 16.2105 74.4958 18.5242C74.4938 20.8648 75.8932 22.2642 77.6703 22.2642ZM96.3249 11.9052V12.8732H96.3229V14.9496V24.1798H98.9607V14.9496H102.112V12.8774H98.9648V11.7731C98.9648 10.642 99.6376 9.94234 100.686 9.94234C101.547 9.94234 102.139 10.2375 102.139 10.2375L102.973 8.24574C102.973 8.24574 102.003 7.70703 100.416 7.70703C97.8048 7.70703 96.3249 9.29424 96.3249 11.9052ZM103.86 9.21368C103.86 8.32616 104.587 7.62646 105.474 7.62646C106.389 7.62646 107.115 8.32616 107.115 9.21368C107.115 10.128 106.389 10.8009 105.474 10.8009C104.587 10.8009 103.86 10.128 103.86 9.21368ZM104.157 12.8731H106.795V24.1756H104.157V12.8731ZM108.583 7.93814H108.868H108.87V7.7627H108.102V7.93814H108.387V8.7431H108.583V7.93814ZM109.037 7.76476V8.7431H109.235V8.14247L109.481 8.46239H109.555L109.801 8.14247V8.7431H110.001V7.76476H109.867L109.516 8.20646L109.177 7.76476H109.037Z" fill="var(--fill-0, white)"/>
</g>
<defs>
<clipPath id="clip0_19901_213521">
<rect width="24.0002" height="24" fill="white" transform="translate(6 6)"/>
</clipPath>
</defs>
</svg>
