<svg width="36" height="36" viewBox="0 0 36 36" fill="none" xmlns="http://www.w3.org/2000/svg">
<path d="M28 3C28 2.44772 28.4477 2 29 2C29.5523 2 30 2.44772 30 3V6H33C33.5523 6 34 6.44772 34 7C34 7.55228 33.5523 8 33 8H30V11C30 11.5523 29.5523 12 29 12C28.4477 12 28 11.5523 28 11V8H25C24.4477 8 24 7.55228 24 7C24 6.44772 24.4477 6 25 6H28V3Z" fill="currentColor"/>
<path d="M22 6C20.952 6 19.9115 6.20595 18.9385 6.60897C17.7231 7.11243 16.6505 7.90788 15.8159 8.92486C14.9813 9.94183 14.4104 11.149 14.1537 12.4393C13.8971 13.7296 13.9626 15.0633 14.3445 16.3223L14.3543 16.3543L14.3223 16.3445C13.0633 15.9626 11.7296 15.8971 10.4393 16.1537C9.14895 16.4104 7.94183 16.9813 6.92486 17.8159C5.90788 18.6505 5.11243 19.7231 4.60897 20.9385C4.1055 22.154 3.90957 23.4749 4.03852 24.7841C4.16748 26.0934 4.61733 27.3507 5.34825 28.4446C6.07916 29.5385 7.06857 30.4352 8.22883 31.0554C9.38909 31.6755 10.6844 32 12 32H30V14H28V30H12C11.0133 30 10.0418 29.7567 9.17162 29.2915C8.30142 28.8264 7.55937 28.1538 7.01118 27.3334C6.463 26.513 6.12561 25.5701 6.02889 24.5881C5.93218 23.6061 6.07913 22.6155 6.45672 21.7039C6.83432 20.7923 7.43091 19.9879 8.19364 19.3619C8.95638 18.736 9.86171 18.3078 10.8295 18.1153C11.7972 17.9228 12.7975 17.9719 13.7417 18.2584C14.6665 18.5389 15.5095 19.0386 16.1993 19.7145C16.6142 20.121 17.2868 20.1274 17.7071 19.7071C18.1274 19.2868 18.121 18.6142 17.7145 18.1993C17.0386 17.5095 16.5389 16.6665 16.2584 15.7417C15.9719 14.7975 15.9228 13.7972 16.1153 12.8295C16.3078 11.8617 16.736 10.9564 17.3619 10.1936C17.9879 9.43091 18.7923 8.83432 19.7039 8.45672C20.4336 8.15447 21.214 8 22 8V6Z" fill="currentColor"/>
</svg>
