<svg width="36" height="36" viewBox="0 0 36 36" fill="none" xmlns="http://www.w3.org/2000/svg">
<path d="M21.0052 10.6414C21.6253 9.93685 22.0014 9.01234 22.0014 8C22.0014 5.79086 20.2105 4 18.0014 4C15.7922 4 14.0014 5.79086 14.0014 8C14.0014 9.01217 14.3773 9.93654 14.9972 10.6411C13.2767 11.3997 11.8634 12.7765 11.1852 14.4723C11.0563 14.7948 11.1391 15.1611 11.3888 15.4025C13.0517 17.0098 15.5343 18 18.0014 18C20.4672 18 22.9508 17.0085 24.6138 15.4023C24.8636 15.161 24.9466 14.7948 24.8177 14.4723C24.1401 12.7762 22.7263 11.3999 21.0052 10.6414Z" fill="currentColor"/>
<path d="M13.0014 22C13.0014 23.0123 12.6253 23.9369 12.0052 24.6414C13.7263 25.3999 15.1401 26.7762 15.8177 28.4723C15.9466 28.7948 15.8636 29.161 15.6138 29.4023C13.9508 31.0085 11.4672 32 9.00143 32C6.53431 32 4.05168 31.0098 2.38884 29.4025C2.13911 29.1611 2.05626 28.7948 2.18523 28.4723C2.86335 26.7765 4.27666 25.3997 5.9972 24.6411C5.37732 23.9365 5.00138 23.0122 5.00138 22C5.00138 19.7909 6.79224 18 9.00138 18C11.2105 18 13.0014 19.7909 13.0014 22Z" fill="currentColor"/>
<path d="M30.0052 24.6414C30.6253 23.9369 31.0014 23.0123 31.0014 22C31.0014 19.7909 29.2105 18 27.0014 18C24.7922 18 23.0014 19.7909 23.0014 22C23.0014 23.0122 23.3773 23.9365 23.9972 24.6411C22.2767 25.3997 20.8634 26.7765 20.1852 28.4723C20.0563 28.7948 20.1391 29.1611 20.3888 29.4025C22.0517 31.0098 24.5343 32 27.0014 32C29.4672 32 31.9508 31.0085 33.6138 29.4023C33.8636 29.161 33.9466 28.7948 33.8177 28.4723C33.1401 26.7762 31.7263 25.3999 30.0052 24.6414Z" fill="currentColor"/>
</svg>
