<svg width="36" height="36" viewBox="0 0 36 36" fill="none" xmlns="http://www.w3.org/2000/svg">
<path fill-rule="evenodd" clip-rule="evenodd" d="M14 11C14 12.6569 12.6569 14 11 14C9.34315 14 8 12.6569 8 11C8 9.34315 9.34315 8 11 8C12.6569 8 14 9.34315 14 11ZM12 11C12 11.5523 11.5523 12 11 12C10.4477 12 10 11.5523 10 11C10 10.4477 10.4477 10 11 10C11.5523 10 12 10.4477 12 11Z" fill="currentColor"/>
<path fill-rule="evenodd" clip-rule="evenodd" d="M4 9C4 6.23858 6.23858 4 9 4H27C29.7614 4 32 6.23858 32 9V27C32 29.7614 29.7614 32 27 32H9C6.23858 32 4 29.7614 4 27V9ZM9 6C7.34315 6 6 7.34315 6 9V22.5655C6.20168 22.521 6.39649 22.4921 6.58658 22.4766C7.17065 22.4289 7.65756 22.5144 8.0285 22.5796L8.05589 22.5844C8.44138 22.652 8.7046 22.6943 9.01673 22.6687C9.31863 22.6441 9.72291 22.5488 10.3107 22.2481C10.8551 21.9707 11.1608 21.6711 11.3684 21.3759C11.5919 21.0579 11.731 20.7098 11.9146 20.2342L11.928 20.1994C12.0987 19.7569 12.3146 19.1971 12.6906 18.6624C13.0924 18.0908 13.6504 17.5794 14.4745 17.1594C16.1592 16.2979 17.4685 16.5908 18.5053 16.8227L18.5302 16.8283C19.5088 17.0472 20.2112 17.1941 21.2396 16.6681C21.7813 16.3909 22.0848 16.0922 22.2925 15.7964C22.5161 15.4778 22.6556 15.1291 22.8401 14.653L22.8525 14.6208C23.0242 14.1774 23.2412 13.6169 23.6187 13.0813C24.0212 12.5104 24.5795 11.9993 25.403 11.5795C25.9966 11.2757 26.6803 11.15 27.3078 11.1043C27.9467 11.0578 28.598 11.0897 29.1694 11.1479C29.4662 11.1781 29.7469 11.216 30 11.2556V9C30 7.34315 28.6569 6 27 6H9ZM6 27V24.6478C6.30918 24.5327 6.55136 24.4861 6.74946 24.47C7.06158 24.4444 7.3248 24.4867 7.7103 24.5543L7.73768 24.5591C8.10862 24.6243 8.59555 24.7098 9.17961 24.6621C9.7882 24.6124 10.4453 24.4256 11.2208 24.0291C12.0447 23.6091 12.6027 23.0976 13.0045 22.5261C13.3805 21.9914 13.5964 21.4316 13.767 20.9891L13.7805 20.9543C13.964 20.4787 14.1032 20.1306 14.3267 19.8126C14.5343 19.5174 14.84 19.2178 15.3844 18.9404C16.4128 18.4143 17.1151 18.5613 18.0937 18.7801L18.1187 18.7857C19.1556 19.0177 20.4652 19.3106 22.1504 18.4486C22.9722 18.0282 23.5286 17.5165 23.9294 16.9455C24.3037 16.4123 24.5197 15.8542 24.6906 15.4126L24.705 15.3754C24.8891 14.9003 25.0291 14.5518 25.2534 14.2336C25.4619 13.9378 25.7672 13.6386 26.3119 13.361L26.3138 13.36C26.5722 13.2277 26.9569 13.1352 27.453 13.0991C27.9381 13.0638 28.4658 13.0866 28.9668 13.1376C29.3506 13.1767 29.7068 13.231 30 13.2832V27C30 28.6569 28.6569 30 27 30H9C7.34315 30 6 28.6569 6 27Z" fill="currentColor"/>
</svg>
