<svg width="36" height="36" viewBox="0 0 36 36" fill="none" xmlns="http://www.w3.org/2000/svg">
<path fill-rule="evenodd" clip-rule="evenodd" d="M4 7.99902C4 5.78989 5.79086 3.99902 8 3.99902H28.001C30.2102 3.99902 32.0011 5.78988 32.0011 7.99902V28.0001C32.0011 30.2092 30.2102 32.0001 28.0011 32.0001H8C5.79086 32.0001 4 30.2092 4 28.0001V7.99902ZM7.00093 22.0001C8.66265 20.8923 9.55537 21.1656 10.4094 21.427C11.0971 21.6375 11.7598 21.8404 12.7788 21.308C13.9253 20.7112 14.2238 19.9212 14.5223 19.1312C14.8208 18.3412 15.1193 17.5512 16.2658 16.9545C17.4079 16.3577 18.2537 16.5509 19.0995 16.7441C19.9453 16.9373 20.7911 17.1305 21.9332 16.5337C23.074 15.9376 23.3732 15.1488 23.6724 14.3598C23.9724 13.5688 24.2724 12.7777 25.4202 12.1802C26.8479 11.4332 29.0009 12 29.0009 12V27C29.0009 28.1046 28.1055 29 27.0009 29H9.00093C7.89636 29 7.00093 28.1046 7.00093 27V22.0001ZM11 14C12.6569 14 14 12.6569 14 11C14 9.34315 12.6569 8 11 8C9.34315 8 8 9.34315 8 11C8 12.6569 9.34315 14 11 14Z" fill="currentColor"/>
</svg>
