<svg width="36" height="36" viewBox="0 0 36 36" fill="none" xmlns="http://www.w3.org/2000/svg">
<path d="M7.11111 4C5.39289 4 4 5.39289 4 7.11111V16.8889C4 18.6071 5.39289 20 7.11111 20H12.8889C14.6071 20 16 18.6071 16 16.8889V7.11111C16 5.39289 14.6071 4 12.8889 4H7.11111Z" fill="currentColor"/>
<path d="M23.1111 16C21.3929 16 20 17.3929 20 19.1111V28.8889C20 30.6071 21.3929 32 23.1111 32H28.8889C30.6071 32 32 30.6071 32 28.8889V19.1111C32 17.3929 30.6071 16 28.8889 16H23.1111Z" fill="currentColor"/>
<path d="M4 25.1111C4 23.3929 5.39289 22 7.11111 22H12.8889C14.6071 22 16 23.3929 16 25.1111V28.8889C16 30.6071 14.6071 32 12.8889 32H7.11111C5.39289 32 4 30.6071 4 28.8889V25.1111Z" fill="currentColor"/>
<path d="M26 14C28.7614 14 31 11.7614 31 9C31 6.23858 28.7614 4 26 4C23.2386 4 21 6.23858 21 9C21 11.7614 23.2386 14 26 14Z" fill="currentColor"/>
</svg>
