<svg width="36" height="36" viewBox="0 0 36 36" fill="none" xmlns="http://www.w3.org/2000/svg">
<path fill-rule="evenodd" clip-rule="evenodd" d="M18 4C10.268 4 4 10.268 4 18C4 25.732 10.268 32 18 32C25.732 32 32 25.732 32 18C32 10.268 25.732 4 18 4ZM2 18C2 9.16344 9.16344 2 18 2C26.8366 2 34 9.16344 34 18C34 26.8366 26.8366 34 18 34C9.16344 34 2 26.8366 2 18ZM12 13C12 10.2386 14.2386 8 17 8H19C21.7614 8 24 10.2386 24 13V14C24 16.7614 21.7614 19 19 19V21H17V17H19C20.6569 17 22 15.6569 22 14V13C22 11.3431 20.6569 10 19 10H17C15.3431 10 14 11.3431 14 13V14H12V13ZM16 26C16 24.8954 16.8954 24 18 24C19.1046 24 20 24.8954 20 26C20 27.1046 19.1046 28 18 28C16.8954 28 16 27.1046 16 26Z" fill="currentColor"/>
</svg>
