<svg width="36" height="36" viewBox="0 0 36 36" fill="none" xmlns="http://www.w3.org/2000/svg">
<path d="M7.77772 0.674122C8.32466 0.308666 8.9533 0.0837381 9.60793 0.0192621C10.2626 -0.0452139 10.923 0.0527523 11.5307 0.304483C12.1385 0.556214 12.6747 0.953939 13.092 1.46243C13.5093 1.97092 13.7948 2.57448 13.9231 3.21964C14.0515 3.8648 14.0187 4.53166 13.8278 5.16114C13.6368 5.79062 13.2936 6.36329 12.8284 6.82843L7 13L1.17157 6.82843C0.706435 6.36329 0.363189 5.79062 0.172239 5.16114C-0.0187115 4.53166 -0.051472 3.8648 0.0768592 3.21964C0.20519 2.57448 0.490652 1.97092 0.907959 1.46243C1.32526 0.953938 1.86154 0.556213 2.46927 0.304483C3.077 0.0527522 3.73743 -0.045214 4.39207 0.0192621C5.04671 0.0837382 5.67534 0.308666 6.22228 0.674123C6.51092 0.866983 6.7721 1.09584 7 1.35425C7.2279 1.09584 7.48908 0.866983 7.77772 0.674122Z" fill="currentColor"/>
<path fill-rule="evenodd" clip-rule="evenodd" d="M14.2649 8.22031C14.9513 7.52664 15.4583 6.67588 15.7416 5.74171C16.0281 4.79749 16.0772 3.79721 15.8847 2.82946C15.8397 2.60336 15.7819 2.38067 15.7117 2.16241C16.459 2.05538 17.223 2 18 2C26.8366 2 34 9.16344 34 18C34 26.8366 26.8366 34 18 34C9.16344 34 2 26.8366 2 18C2 15.8382 2.42874 13.7765 3.20584 11.8953L7 15.9129L14.2649 8.22031ZM22 15C22 16.3957 21.2851 17.6245 20.2016 18.3401C22.2794 18.9901 24.036 20.5191 24.8164 22.4723C24.9452 22.7948 24.8622 23.161 24.6124 23.4023C22.9494 25.0085 20.4658 26 18.0001 26C15.5329 26 13.0503 25.0098 11.3875 23.4025C11.1377 23.1611 11.0549 22.7948 11.1838 22.4723C11.9648 20.5195 13.7206 18.9897 15.7979 18.3398C14.7146 17.6241 14 16.3955 14 15C14 12.7909 15.7909 11 18 11C20.2091 11 22 12.7909 22 15Z" fill="currentColor"/>
</svg>
