<svg width="36" height="36" viewBox="0 0 36 36" fill="none" xmlns="http://www.w3.org/2000/svg">
<path fill-rule="evenodd" clip-rule="evenodd" d="M19.4142 1.99985C18.6332 1.2188 17.3668 1.2188 16.5858 1.99985L7.46447 11.1212C6.52679 12.0588 6 13.3306 6 14.6567V28.9998C6 31.7613 8.23858 33.9999 11 33.9999H20V31.9998H11C9.34315 31.9998 8 30.6567 8 28.9998V14.6567C8 13.8611 8.31607 13.098 8.87868 12.5354L18 3.41406L27.1213 12.5354C27.6839 13.098 28 13.8611 28 14.6567V19.9998H30V14.6567C30 13.3306 29.4732 12.0589 28.5355 11.1212L19.4142 1.99985ZM20 11.9998C20 10.8953 19.1046 9.99985 18 9.99985C16.8954 9.99985 16 10.8953 16 11.9998C16 13.1044 16.8954 13.9998 18 13.9998C19.1046 13.9998 20 13.1044 20 11.9998ZM20 27.9998V25.9998H12V27.9998H20ZM28 24V28H24V30H28V34H30V30H34V28H30V24H28Z" fill="currentColor"/>
</svg>
