<svg width="36" height="36" viewBox="0 0 36 36" fill="none" xmlns="http://www.w3.org/2000/svg">
<path fill-rule="evenodd" clip-rule="evenodd" d="M9.51472 5.51472C11.7652 3.26428 14.8174 2 18 2C21.1826 2 24.2348 3.26428 26.4853 5.51472C28.7357 7.76516 30 10.8174 30 14V19.1716C30 19.4368 30.1054 19.6911 30.2929 19.8787L32.1213 21.7071C32.6839 22.2697 33 23.0328 33 23.8284V25C33 26.6569 31.6569 28 30 28H6C4.34315 28 3 26.6569 3 25V23.8284C3 23.0328 3.31607 22.2697 3.87868 21.7071L5.70711 19.8787C5.89464 19.6911 6 19.4368 6 19.1716V14C6 10.8174 7.26428 7.76515 9.51472 5.51472ZM18 4C15.3478 4 12.8043 5.05357 10.9289 6.92893C9.05357 8.80429 8 11.3478 8 14V19.1716C8 19.9672 7.68393 20.7303 7.12132 21.2929L5.29289 23.1213C5.10536 23.3089 5 23.5632 5 23.8284V25C5 25.5523 5.44772 26 6 26H30C30.5523 26 31 25.5523 31 25V23.8284C31 23.5632 30.8946 23.3089 30.7071 23.1213L28.8787 21.2929C28.3161 20.7303 28 19.9672 28 19.1716V14C28 11.3478 26.9464 8.8043 25.0711 6.92893C23.1957 5.05357 20.6522 4 18 4ZM16 30C16 30.5304 16.2107 31.0391 16.5858 31.4142C16.9609 31.7893 17.4696 32 18 32C18.5304 32 19.0391 31.7893 19.4142 31.4142C19.7893 31.0391 20 30.5304 20 30H22C22 31.0609 21.5786 32.0783 20.8284 32.8284C20.0783 33.5786 19.0609 34 18 34C16.9391 34 15.9217 33.5786 15.1716 32.8284C14.4214 32.0783 14 31.0609 14 30H16Z" fill="currentColor"/>
</svg>
