<svg width="36" height="36" viewBox="0 0 36 36" fill="none" xmlns="http://www.w3.org/2000/svg">
<path d="M20.4454 8.20603L17.9987 4.01758L15.5519 8.20614L10.9648 9.24222L14.0334 12.8384L13.3644 17.9975L17.9987 16.0446L22.633 17.9975L21.9641 12.8388L25.0376 9.24221L20.4454 8.20603Z" fill="currentColor"/>
<path d="M29.4044 22.206L26.9577 18.0176L24.5109 22.2061L19.9238 23.2422L22.9923 26.8384L22.3234 31.9975L26.9577 30.0446L31.592 31.9975L30.9231 26.8388L33.9966 23.2422L29.4044 22.206Z" fill="currentColor"/>
<path d="M11.4845 22.206L9.03776 18.0176L6.59097 22.2061L2.00391 23.2422L5.07242 26.8384L4.40348 31.9975L9.03776 30.0446L13.6721 31.9975L13.0032 26.8388L16.0767 23.2422L11.4845 22.206Z" fill="currentColor"/>
</svg>
