<svg width="36" height="36" viewBox="0 0 36 36" fill="none" xmlns="http://www.w3.org/2000/svg">
<path fill-rule="evenodd" clip-rule="evenodd" d="M13.8383 3.50452C14.0646 2.61927 14.8622 2 15.7759 2H20.2187C21.1364 2 21.9364 2.62456 22.159 3.51486L23.0567 7.10541L23.0609 7.11118C23.0665 7.11773 23.0773 7.12727 23.0943 7.13524C23.7122 7.42503 24.3044 7.76701 24.8642 8.15747C24.8795 8.16814 24.893 8.17273 24.9014 8.17429L24.9084 8.17499L28.4533 7.18151C29.3331 6.93493 30.2682 7.31599 30.7251 8.10731L32.9465 11.9549C33.4053 12.7496 33.2644 13.7547 32.6047 14.3926L29.9441 16.9654L29.9411 16.9719C29.9382 16.98 29.9354 16.9941 29.937 17.0128C29.9947 17.6895 29.9949 18.3698 29.9375 19.0465C29.9359 19.0655 29.9389 19.0798 29.9419 19.088L29.9449 19.0945L32.587 21.6008C33.258 22.2373 33.405 23.2509 32.9426 24.0518L30.721 27.8997C30.2678 28.6846 29.3434 29.0667 28.4683 28.8307L24.8126 27.8451L24.8057 27.8458C24.7976 27.8474 24.7844 27.8518 24.7693 27.8621C24.2087 28.2468 23.6163 28.5831 22.9987 28.8675C22.981 28.8756 22.9698 28.8856 22.964 28.8924C22.9614 28.8955 22.9598 28.8985 22.9598 28.8985L22.1517 32.4444C21.9443 33.3544 21.1351 34 20.2017 34L15.7678 34C14.8615 34 14.0684 33.3905 13.8352 32.5146L12.8609 28.8559L12.8568 28.8503C12.8514 28.844 12.841 28.8348 12.8245 28.8269C12.2111 28.5337 11.6236 28.1888 11.0686 27.7962C11.0527 27.7849 11.0384 27.7802 11.0296 27.7786C11.0256 27.7779 11.0222 27.7779 11.0222 27.7779L7.54737 28.8511C6.65556 29.1265 5.69183 28.7485 5.22515 27.9401L3.00823 24.1003C2.55505 23.3154 2.68638 22.3238 3.32825 21.6839L6.00969 19.0107L6.0125 19.0044C6.01526 18.9966 6.01803 18.983 6.01661 18.9648C5.96353 18.2835 5.96876 17.5988 6.03222 16.9184C6.03399 16.8994 6.03113 16.885 6.02819 16.8767L6.0252 16.8701L3.36733 14.3309C2.7005 13.6938 2.55573 12.6834 3.01684 11.8848L5.23365 8.04512C5.69251 7.25037 6.63336 6.86987 7.51569 7.12223L11.0741 8.14001C11.0741 8.14001 11.0776 8.14003 11.0819 8.13917C11.0905 8.13747 11.1038 8.1328 11.1187 8.12245C11.2298 8.04499 11.3422 7.96944 11.4558 7.89584C11.9147 7.59854 12.3935 7.33288 12.8889 7.10075C12.9058 7.09284 12.9166 7.08339 12.9221 7.07691L12.9262 7.07119L13.8383 3.50452ZM20.2187 4H15.7759L14.8637 7.56743C14.7056 8.18547 14.2708 8.66191 13.7375 8.9118C13.3247 9.10524 12.9257 9.32663 12.5433 9.57437C12.4486 9.63571 12.3549 9.69867 12.2623 9.76321C12.0257 9.92813 11.7565 10.0443 11.4714 10.1009C11.1665 10.1614 10.8422 10.1539 10.5249 10.0631L6.9657 9.04512L4.74889 12.8848L7.40732 15.4245C7.87901 15.8751 8.07947 16.5048 8.02357 17.1041C7.97069 17.6712 7.96634 18.2417 8.01057 18.8095C8.05538 19.3846 7.86462 19.9856 7.42228 20.4266L4.74028 23.1003L6.9572 26.9401L10.4328 25.8668C11.0663 25.6711 11.7244 25.8102 12.2237 26.1635C12.6862 26.4907 13.1758 26.7781 13.687 27.0224C14.2075 27.2712 14.6326 27.7369 14.7933 28.3404L15.7678 32L20.2017 32L21.0099 28.4534C21.1572 27.8069 21.6067 27.3065 22.1623 27.0508C22.677 26.8138 23.1706 26.5335 23.6378 26.2129C24.1135 25.8866 24.7294 25.7513 25.3324 25.9139L28.989 26.8997L31.2105 23.0518L28.5679 20.545C28.0973 20.0986 27.8941 19.4741 27.9447 18.8776C27.9925 18.3137 27.9923 17.7467 27.9442 17.1828C27.8939 16.5926 28.0919 15.9743 28.5532 15.5282L31.2144 12.9549L28.993 9.10731L25.4474 10.101C24.8332 10.2732 24.2031 10.1348 23.7201 9.79789C23.2535 9.47251 22.7601 9.18752 22.2451 8.94603C21.7088 8.69452 21.2723 8.21389 21.1167 7.59132L20.2187 4ZM17.9997 14C15.7906 14 13.9997 15.7909 13.9997 18C13.9997 20.2091 15.7906 22 17.9997 22C20.2089 22 21.9997 20.2091 21.9997 18C21.9997 15.7909 20.2089 14 17.9997 14ZM11.9997 18C11.9997 14.6863 14.686 12 17.9997 12C21.3135 12 23.9997 14.6863 23.9997 18C23.9997 21.3137 21.3135 24 17.9997 24C14.686 24 11.9997 21.3137 11.9997 18Z" fill="currentColor"/>
</svg>
