<svg width="36" height="36" viewBox="0 0 36 36" fill="none" xmlns="http://www.w3.org/2000/svg">
<path d="M31.6516 3.75751C32.0699 3.39696 32.1168 2.76553 31.7562 2.34718C31.3957 1.92882 30.7642 1.88197 30.3459 2.24252L19.3552 11.7148C19.0217 12.0022 18.5395 12.0377 18.1675 11.8022L14.8393 9.69561C13.6999 8.97437 12.2192 9.10205 11.2201 10.0077L4.33037 16.2526C3.92117 16.6235 3.89013 17.2559 4.26103 17.6651C4.63194 18.0743 5.26434 18.1054 5.67355 17.7345L12.5633 11.4896C12.8963 11.1877 13.3899 11.1451 13.7697 11.3855L17.0978 13.4922C18.2138 14.1985 19.6604 14.092 20.6608 13.2298L31.6516 3.75751Z" fill="currentColor"/>
<path fill-rule="evenodd" clip-rule="evenodd" d="M27 14C25.3431 14 24 15.3431 24 17V29C24 30.6569 25.3431 32 27 32H29C30.6569 32 32 30.6569 32 29V17C32 15.3431 30.6569 14 29 14H27Z" fill="currentColor"/>
<path fill-rule="evenodd" clip-rule="evenodd" d="M17 18C15.3431 18 14 19.3431 14 21V29C14 30.6569 15.3431 32 17 32H19C20.6569 32 22 30.6569 22 29V21C22 19.3431 20.6569 18 19 18H17Z" fill="currentColor"/>
<path fill-rule="evenodd" clip-rule="evenodd" d="M7 22C5.34315 22 4 23.3431 4 25V29C4 30.6569 5.34315 32 7 32H9C10.6569 32 12 30.6569 12 29V25C12 23.3431 10.6569 22 9 22H7Z" fill="currentColor"/>
</svg>
